[h264 @ 0x5619b830a1c0] Reinit context to 720x1280, pix_fmt: yuv420p
Input #0, mov,mp4,m4a,3gp,3g2,mj2, from '/var/www/html/project/media/video/original/lv_0_20250106161628_tj2mIex.mp4':
  Metadata:
    major_brand     : isom
    minor_version   : 512
    compatible_brands: isomiso2avc1mp41
    Hw              : 1
    LvMetaInfo      : {"data":{"adsTemplateId":"","appVersion":"13.5.0","businessComponentId":"","businessTemplateId":"","capabilityName":"","commercial_params":{},"draftInfo":{},"editSource":"","editType":"edit","enterFrom":"new","exportType":"export","extendTemplateId":"","e
    aigc_info       : {"aigc_label_type":0,"source_info":""}
    bitrate         : 10000000
    maxrate         : 30000000
    te_is_reencode  : 1
    encoder         : bytevehwavc
  Duration: 00:00:54.29, start: 0.000000, bitrate: 8080 kb/s
    Stream #0:0(und): Video: h264 (High), 1 reference frame (avc1 / 0x31637661), yuv420p(tv, bt709, left), 720x1272 (720x1280), 7923 kb/s, 30 fps, 30 tbr, 1000k tbn, 2000k tbc (default)
    Metadata:
      handler_name    : VideoHandler
    Stream #0:1(und): Audio: aac (LC) (mp4a / 0x6134706D), 44100 Hz, stereo, fltp, 155 kb/s (default)
    Metadata:
      handler_name    : SoundHandler
Input #1, png_pipe, from '/var/www/html/project/static/images/templates/logo_vertical.png':
  Duration: N/A, bitrate: N/A
    Stream #1:0: Video: png, 1 reference frame, rgba(pc), 1920x1080 [SAR 2835:2835 DAR 16:9], 25 tbr, 25 tbn, 25 tbc
[h264 @ 0x5619b8388b40] Reinit context to 1280x720, pix_fmt: yuv420p
Input #2, mov,mp4,m4a,3gp,3g2,mj2, from '/var/www/html/project/static/images/templates/Codino.mp4':
  Metadata:
    major_brand     : mp42
    minor_version   : 1
    compatible_brands: isommp41mp42
    creation_time   : 2021-07-11T07:02:58.000000Z
  Duration: 00:00:02.00, start: 0.000000, bitrate: 1007 kb/s
    Stream #2:0(ita): Audio: aac (LC) (mp4a / 0x6134706D), 44100 Hz, stereo, fltp, 102 kb/s (default)
    Metadata:
      creation_time   : 2021-07-11T07:02:58.000000Z
      handler_name    : Core Media Audio
    Stream #2:1(und): Video: h264 (High), 1 reference frame (avc1 / 0x31637661), yuv420p(tv, bt709, progressive, left), 1280x720 [SAR 1:1 DAR 16:9], 813 kb/s, 25 fps, 25 tbr, 25k tbn, 50k tbc (default)
    Metadata:
      creation_time   : 2021-07-11T07:02:58.000000Z
      handler_name    : Core Media Video
[Parsed_scale_1 @ 0x5619b836b540] w:1280 h:720 flags:'bilinear' interl:0
[Parsed_scale_4 @ 0x5619b8363200] w:-1 h:720 flags:'bilinear' interl:0
[Parsed_scale_7 @ 0x5619b835bfc0] w:1280 h:720 flags:'bilinear' interl:0
[Parsed_scale_9 @ 0x5619b83dcd00] w:1280 h:720 flags:'bilinear' interl:0
Stream mapping:
  Stream #0:0 (h264) -> split
  Stream #0:1 (aac) -> concat:in0:a0
  Stream #1:0 (png) -> scale
  Stream #2:0 (aac) -> concat:in1:a0
  Stream #2:1 (h264) -> scale
  concat:out:v0 -> Stream #0:0 (libx264)
  concat:out:a0 -> Stream #0:1 (aac)
Press [q] to stop, [?] for help
[h264 @ 0x5619b835bfc0] Reinit context to 720x1280, pix_fmt: yuv420p
[h264 @ 0x5619b873f540] Reinit context to 1280x720, pix_fmt: yuv420p
[Parsed_scale_1 @ 0x5619b95d1040] w:1280 h:720 flags:'bilinear' interl:0
[Parsed_scale_4 @ 0x5619b95dc640] w:-1 h:720 flags:'bilinear' interl:0
[Parsed_scale_7 @ 0x5619b95df080] w:1280 h:720 flags:'bilinear' interl:0
[Parsed_scale_9 @ 0x5619b95e08c0] w:1280 h:720 flags:'bilinear' interl:0
[graph 0 input from stream 0:0 @ 0x5619b95e50c0] w:720 h:1272 pixfmt:yuv420p tb:1/1000000 fr:30/1 sar:0/1 sws_param:flags=2
[graph 0 input from stream 1:0 @ 0x5619b95db3c0] w:1920 h:1080 pixfmt:rgba tb:1/25 fr:25/1 sar:2835/2835 sws_param:flags=2
[graph 0 input from stream 2:1 @ 0x5619b95e3340] w:1280 h:720 pixfmt:yuv420p tb:1/25000 fr:25/1 sar:1/1 sws_param:flags=2
[graph_0_in_0_1 @ 0x5619b95e00c0] tb:1/44100 samplefmt:fltp samplerate:44100 chlayout:0x3
[graph_0_in_2_0 @ 0x5619b95dfac0] tb:1/44100 samplefmt:fltp samplerate:44100 chlayout:0x3
[Parsed_scale_1 @ 0x5619b95d1040] w:720 h:1272 fmt:yuv420p sar:0/1 -> w:1280 h:720 fmt:yuv420p sar:0/1 flags:0x2
[Parsed_boxblur_2 @ 0x5619b83d6840] luma_radius:36 luma_power:1 chroma_radius:18 chroma_power:1 alpha_radius:36 alpha_power:1 w:1280 chroma_w:640 h:720 chroma_h:360
[Parsed_setsar_3 @ 0x5619b95db680] w:1280 h:720 sar:0/1 dar:16/9 -> sar:1/1 dar:16/9
[Parsed_scale_4 @ 0x5619b95dc640] w:720 h:1272 fmt:yuv420p sar:0/1 -> w:408 h:720 fmt:yuva420p sar:0/1 flags:0x2
[Parsed_setsar_5 @ 0x5619b95dc480] w:408 h:720 sar:0/1 dar:17/30 -> sar:1/1 dar:17/30
[Parsed_overlay_6 @ 0x5619b95dde40] main w:1280 h:720 fmt:yuv420p overlay w:408 h:720 fmt:yuva420p
[Parsed_overlay_6 @ 0x5619b95dde40] [framesync @ 0x5619b95ddf68] Selected 1/1000000 time base
[Parsed_overlay_6 @ 0x5619b95dde40] [framesync @ 0x5619b95ddf68] Sync level 2
[Parsed_scale_7 @ 0x5619b95df080] w:1920 h:1080 fmt:rgba sar:2835/2835 -> w:1280 h:720 fmt:yuva420p sar:1/1 flags:0x2
[Parsed_setsar_8 @ 0x5619b95dfbc0] w:1280 h:720 sar:1/1 dar:16/9 -> sar:1/1 dar:16/9
[Parsed_overlay_11 @ 0x5619b95e1f40] main w:1280 h:720 fmt:yuv420p overlay w:1280 h:720 fmt:yuva420p
[Parsed_overlay_11 @ 0x5619b95e1f40] [framesync @ 0x5619b95e20a8] Selected 1/1000000 time base
[Parsed_overlay_11 @ 0x5619b95e1f40] [framesync @ 0x5619b95e20a8] Sync level 2
[Parsed_scale_9 @ 0x5619b95e08c0] w:1280 h:720 fmt:yuv420p sar:1/1 -> w:1280 h:720 fmt:yuv420p sar:1/1 flags:0x2
[Parsed_setsar_10 @ 0x5619b95e13c0] w:1280 h:720 sar:1/1 dar:16/9 -> sar:1/1 dar:16/9
[libx264 @ 0x5619b836b540] using SAR=1/1
[libx264 @ 0x5619b836b540] using cpu capabilities: MMX2 SSE2Fast SSSE3 SSE4.2 AVX FMA3 BMI2 AVX2
[libx264 @ 0x5619b836b540] profile High, level 3.1
[libx264 @ 0x5619b836b540] 264 - core 155 r2917 0a84d98 - H.264/MPEG-4 AVC codec - Copyleft 2003-2018 - http://www.videolan.org/x264.html - options: cabac=1 ref=1 deblock=1:0:0 analyse=0x3:0x113 me=hex subme=2 psy=1 psy_rd=1.00:0.00 mixed_ref=0 me_range=16 chroma_me=1 trellis=0 8x8dct=1 cqm=0 deadzone=21,11 fast_pskip=1 chroma_qp_offset=0 threads=22 lookahead_threads=5 sliced_threads=0 nr=0 decimate=1 interlaced=0 bluray_compat=0 constrained_intra=0 bframes=3 b_pyramid=2 b_adapt=1 b_bias=0 direct=1 weightb=1 open_gop=0 weightp=1 keyint=250 keyint_min=25 scenecut=40 intra_refresh=0 rc_lookahead=10 rc=crf mbtree=1 crf=18.0 qcomp=0.60 qpmin=0 qpmax=69 qpstep=4 ip_ratio=1.40 aq=1:1.00
Output #0, mp4, to '/var/www/html/project/media/video/watermarks/lv_0_20250106161628_tj2mIex.mp4':
  Metadata:
    major_brand     : isom
    minor_version   : 512
    compatible_brands: isomiso2avc1mp41
    Hw              : 1
    LvMetaInfo      : {"data":{"adsTemplateId":"","appVersion":"13.5.0","businessComponentId":"","businessTemplateId":"","capabilityName":"","commercial_params":{},"draftInfo":{},"editSource":"","editType":"edit","enterFrom":"new","exportType":"export","extendTemplateId":"","e
    aigc_info       : {"aigc_label_type":0,"source_info":""}
    bitrate         : 10000000
    maxrate         : 30000000
    te_is_reencode  : 1
    encoder         : Lavf58.29.100
    Stream #0:0: Video: h264 (libx264), 1 reference frame (avc1 / 0x31637661), yuv420p(progressive), 1280x720 [SAR 1:1 DAR 16:9], q=-1--1, 30 fps, 15360 tbn, 30 tbc (default)
    Metadata:
      encoder         : Lavc58.54.100 libx264
    Side data:
      cpb: bitrate max/min/avg: 0/0/0 buffer size: 0 vbv_delay: -1
    Stream #0:1: Audio: aac (LC) (mp4a / 0x6134706D), 44100 Hz, stereo, fltp, delay 1024, 128 kb/s (default)
    Metadata:
      encoder         : Lavc58.54.100 aac
[Parsed_overlay_6 @ 0x5619b95dde40] [framesync @ 0x5619b95ddf68] Sync level 1
[Parsed_overlay_6 @ 0x5619b95dde40] [framesync @ 0x5619b95ddf68] Sync level 0
[Parsed_overlay_11 @ 0x5619b95e1f40] [framesync @ 0x5619b95e20a8] Sync level 0
[Parsed_concat_12 @ 0x5619b95e3100] EOF on in0:v0, 1 streams left in segment.
[Parsed_concat_12 @ 0x5619b95e3100] EOF on in0:a0, 0 streams left in segment.
[Parsed_concat_12 @ 0x5619b95e3100] Segment finished at pts=54266666
[Parsed_concat_12 @ 0x5619b95e3100] EOF on in1:a0, 1 streams left in segment.
[Parsed_concat_12 @ 0x5619b95e3100] EOF on in1:v0, 0 streams left in segment.
[Parsed_concat_12 @ 0x5619b95e3100] Segment finished at pts=56285351
No more output streams to write to, finishing.
frame= 1678 fps= 32 q=-1.0 Lsize=   15565kB time=00:00:56.30 bitrate=2264.4kbits/s speed=1.07x    
[AVIOContext @ 0x5619b8308500] Statistics: 0 seeks, 103 writeouts
video:14627kB audio:877kB subtitle:0kB other streams:0kB global headers:0kB muxing overhead: 0.392349%
Input file #0 (/var/www/html/project/media/video/original/lv_0_20250106161628_tj2mIex.mp4):
  Input stream #0:0 (video): 1628 packets read (53745684 bytes); 1628 frames decoded; 
  Input stream #0:1 (audio): 2338 packets read (1054769 bytes); 2336 frames decoded (2392064 samples); 
  Total: 3966 packets (54800453 bytes) demuxed
Input file #1 (/var/www/html/project/static/images/templates/logo_vertical.png):
  Input stream #1:0 (video): 1 packets read (93903 bytes); 1 frames decoded; 
  Total: 1 packets (93903 bytes) demuxed
Input file #2 (/var/www/html/project/static/images/templates/Codino.mp4):
  Input stream #2:0 (audio): 89 packets read (26579 bytes); 87 frames decoded (89024 samples); 
  Input stream #2:1 (video): 50 packets read (203365 bytes); 50 frames decoded; 
  Total: 139 packets (229944 bytes) demuxed
Output file #0 (/var/www/html/project/media/video/watermarks/lv_0_20250106161628_tj2mIex.mp4):
  Output stream #0:0 (video): 1678 frames encoded; 1678 packets muxed (14977811 bytes); 
  Output stream #0:1 (audio): 2425 frames encoded (2482179 samples); 2426 packets muxed (898097 bytes); 
  Total: 4104 packets (15875908 bytes) muxed
[AVIOContext @ 0x5619b8375280] Statistics: 2 seeks, 64 writeouts
[libx264 @ 0x5619b836b540] frame I:9     Avg QP:13.09  size: 34176
[libx264 @ 0x5619b836b540] frame P:444   Avg QP:16.73  size: 15141
[libx264 @ 0x5619b836b540] frame B:1225  Avg QP:18.28  size:  6487
[libx264 @ 0x5619b836b540] consecutive B-frames:  2.0%  1.5%  1.1% 95.4%
[libx264 @ 0x5619b836b540] mb I  I16..4: 47.7% 31.7% 20.6%
[libx264 @ 0x5619b836b540] mb P  I16..4: 27.3% 21.1%  4.5%  P16..4: 16.0%  9.9%  3.6%  0.0%  0.0%    skip:17.6%
[libx264 @ 0x5619b836b540] mb B  I16..4:  6.0%  3.1%  0.4%  B16..8: 21.1%  9.6%  0.9%  direct: 7.8%  skip:51.2%  L0:44.3% L1:45.0% BI:10.7%
[libx264 @ 0x5619b836b540] 8x8 transform intra:37.4% inter:26.8%
[libx264 @ 0x5619b836b540] coded y,uvDC,uvAC intra: 28.4% 31.1% 6.7% inter: 5.9% 16.8% 0.4%
[libx264 @ 0x5619b836b540] i16 v,h,dc,p: 25% 51%  7% 17%
[libx264 @ 0x5619b836b540] i8 v,h,dc,ddl,ddr,vr,hd,vl,hu: 10% 52% 16%  2%  4%  2%  7%  2%  5%
[libx264 @ 0x5619b836b540] i4 v,h,dc,ddl,ddr,vr,hd,vl,hu: 17% 43% 12%  4%  5%  4%  6%  3%  7%
[libx264 @ 0x5619b836b540] i8c dc,h,v,p: 55% 28%  9%  8%
[libx264 @ 0x5619b836b540] Weighted P-Frames: Y:2.5% UV:0.0%
[libx264 @ 0x5619b836b540] kb/s:2129.45
[aac @ 0x5619b83c6780] Qavg: 1052.662
[AVIOContext @ 0x5619b8311500] Statistics: 98533871 bytes read, 2534 seeks
[AVIOContext @ 0x5619b830b4c0] Statistics: 93903 bytes read, 0 seeks
[AVIOContext @ 0x5619b8362000] Statistics: 1530915 bytes read, 42 seeks
